<svg id="Copy_Num_Seg-white" xmlns="http://www.w3.org/2000/svg" width="48" height="48" viewBox="0 0 48 48">
  <rect id="Rectangle_448" data-name="Rectangle 448" width="48" height="48" rx="3" fill="#fff"/>
  <path id="Path_369" data-name="Path 369" d="M12.01,5.09H33.48a1.272,1.272,0,0,1,1.27,1.27v4.03a1.272,1.272,0,0,1-1.27,1.27H12.01a1.272,1.272,0,0,1-1.27-1.27V6.36a1.272,1.272,0,0,1,1.27-1.27Z" fill="#2a72a5"/>
  <rect id="Rectangle_449" data-name="Rectangle 449" width="3.86" height="6.56" rx="1.27" transform="translate(39.61 5.09)" fill="#2a72a5"/>
  <path id="Path_370" data-name="Path 370" d="M31.43,15.51H42.19a1.272,1.272,0,0,1,1.27,1.27v4.03a1.272,1.272,0,0,1-1.27,1.27H31.43a1.272,1.272,0,0,1-1.27-1.27V16.78a1.272,1.272,0,0,1,1.27-1.27Z" fill="#fcd242"/>
  <path id="Path_371" data-name="Path 371" d="M15.26,15.51h6.16a1.272,1.272,0,0,1,1.27,1.27v4.03a1.272,1.272,0,0,1-1.27,1.27H15.26a1.272,1.272,0,0,1-1.27-1.27V16.78A1.272,1.272,0,0,1,15.26,15.51Z" fill="#fcd242"/>
  <path id="Path_372" data-name="Path 372" d="M11.97,15.51a1.272,1.272,0,0,0-1.27,1.27v4.03a1.272,1.272,0,0,0,1.27,1.27h0a1.272,1.272,0,0,0,1.27-1.27V16.78a1.272,1.272,0,0,0-1.27-1.27Z" fill="#fcd242"/>
  <path id="Path_373" data-name="Path 373" d="M15.26,25.93H33.49a1.272,1.272,0,0,1,1.27,1.27v4.03a1.272,1.272,0,0,1-1.27,1.27H15.26a1.272,1.272,0,0,1-1.27-1.27V27.2a1.272,1.272,0,0,1,1.27-1.27Z" fill="#ee5251"/>
  <rect id="Rectangle_450" data-name="Rectangle 450" width="7.96" height="6.56" rx="1.27" transform="translate(35.5 25.93)" fill="#ee5251"/>
  <path id="Path_374" data-name="Path 374" d="M36.77,36.35H42.2a1.272,1.272,0,0,1,1.27,1.27v4.03a1.272,1.272,0,0,1-1.27,1.27H36.77a1.272,1.272,0,0,1-1.27-1.27V37.62A1.272,1.272,0,0,1,36.77,36.35Z" fill="#00ba8b"/>
  <path id="Path_375" data-name="Path 375" d="M8.77,36.35h3.2a1.272,1.272,0,0,1,1.27,1.27v4.03a1.272,1.272,0,0,1-1.27,1.27H8.77A1.272,1.272,0,0,1,7.5,41.65V37.62a1.272,1.272,0,0,1,1.27-1.27Z" fill="#00ba8b"/>
  <rect id="Rectangle_451" data-name="Rectangle 451" width="5.47" height="0.75" transform="translate(4.53 7.99)" fill="#313131"/>
  <rect id="Rectangle_452" data-name="Rectangle 452" width="3.36" height="0.75" transform="translate(35.5 7.99)" fill="#313131"/>
  <rect id="Rectangle_453" data-name="Rectangle 453" width="5.42" height="0.75" transform="translate(4.53 18.41)" fill="#313131"/>
  <rect id="Rectangle_454" data-name="Rectangle 454" width="5.98" height="0.75" transform="translate(23.43 18.41)" fill="#313131"/>
  <rect id="Rectangle_455" data-name="Rectangle 455" width="8.71" height="0.75" transform="translate(4.53 28.84)" fill="#313131"/>
  <rect id="Rectangle_456" data-name="Rectangle 456" width="20.76" height="0.75" transform="translate(13.99 39.26)" fill="#313131"/>
  <rect id="Rectangle_457" data-name="Rectangle 457" width="2.22" height="0.75" transform="translate(4.53 39.26)" fill="#313131"/>
</svg>
